<?xml version="1.0" encoding="utf-8"?>
<!-- Generator: Adobe Illustrator 16.0.0, SVG Export Plug-In . SVG Version: 6.00 Build 0)  -->
<!DOCTYPE svg PUBLIC "-//W3C//DTD SVG 1.1//EN" "http://www.w3.org/Graphics/SVG/1.1/DTD/svg11.dtd">
<svg version="1.1" id="Слой_1" xmlns="http://www.w3.org/2000/svg" xmlns:xlink="http://www.w3.org/1999/xlink" x="0px" y="0px"
	 width="120px" height="120px" viewBox="0 0 120 120" enable-background="new 0 0 120 120" xml:space="preserve">
<path fill-rule="evenodd" clip-rule="evenodd" fill="#3AA7D4" d="M119.855,52.712c-0.26-3.802-0.972-7.479-2.494-10.98
	c-2.824-6.494-7.531-11.039-14.183-13.489c-6.082-2.24-12.368-2.521-18.723-1.617c-5.542,0.788-10.53,2.873-14.706,6.697
	c-0.572,0.524-1.231,0.794-1.997,0.877c-3.248,0.35-6.494,0.722-9.742,1.073c-6.82,0.738-13.643,1.459-20.462,2.205
	c-6.849,0.75-13.696,1.521-20.544,2.285c-0.203,0.023-0.468-0.052-0.588,0.325c2.018,0.226,3.989,0.446,5.961,0.667
	c3.952,0.441,7.904,0.888,11.858,1.321c3.128,0.343,6.257,0.665,9.386,1.002c3.541,0.381,7.082,0.77,10.623,1.154
	c2.301,0.25,4.604,0.498,6.905,0.749c0.594,0.064,0.849,0.317,0.614,0.954c-0.236,0.64-0.421,1.301-0.591,1.963
	c-0.558,2.162-0.974,4.35-1.163,6.578c-0.058,0.675-0.176,1.255-1.08,1.353c-4.607,0.499-9.207,1.056-13.812,1.575
	c-7.112,0.801-14.228,1.582-21.341,2.381c-6.789,0.762-13.576,1.533-20.363,2.305C2.282,62.218,1.153,62.376,0,62.524
	c0.118,0.321,0.325,0.245,0.484,0.263c3.804,0.44,7.607,0.877,11.411,1.313c3.953,0.453,7.903,0.908,11.855,1.356
	c4.011,0.455,8.022,0.899,12.033,1.356c3.273,0.373,6.545,0.762,9.818,1.135c4.66,0.532,9.318,1.074,13.982,1.563
	c0.737,0.078,1.021,0.392,1.158,1.066c0.506,2.489,1.33,4.874,2.48,7.139c0.316,0.624,0.092,0.744-0.498,0.805
	c-2.717,0.281-5.432,0.596-8.146,0.9c-5.136,0.574-10.27,1.156-15.406,1.72c-6.2,0.68-12.403,1.328-18.6,2.036
	c-0.754,0.086-1.57-0.036-2.457,0.434c1.893,0.211,3.6,0.403,5.309,0.591c4.045,0.444,8.09,0.881,12.134,1.331
	c4.484,0.498,8.968,1.018,13.452,1.509c3.6,0.394,7.203,0.753,10.804,1.14c3.659,0.393,7.323,0.756,10.975,1.22
	c1.839,0.234,3.718,0.22,5.473,1.066c4.765,2.297,9.858,3.25,15.113,3.359c3.266,0.067,6.529,0.031,9.791-0.317
	c4.983-0.53,9.755-1.759,14.296-3.896c0.606-0.285,0.816-0.649,0.812-1.301c-0.024-3.121-0.011-6.245-0.011-9.367
	c0-0.893-0.009-1.785,0-2.677c0.007-0.608-0.185-0.84-0.8-0.527c-0.528,0.27-1.08,0.496-1.628,0.726
	c-7.03,2.944-14.306,4.554-21.973,3.979c-4.147-0.311-7.732-1.818-10.402-5.11c-1.494-1.843-2.656-3.872-2.871-6.313
	c-0.124-1.484-0.15-2.969,0.01-4.453h-0.001l0.001-0.003c0,0.001,0,0.001,0,0.003c0.337-0.179,0.699-0.087,1.049-0.087
	c13.099-0.005,26.197-0.004,39.296-0.009c0.35,0,0.713,0.088,1.051-0.085C119.924,60.497,120.122,56.605,119.855,52.712z
	 M102.209,52.609c-3.835-0.019-7.67-0.009-11.506-0.009c-3.628,0-7.255,0.001-10.882,0c-1.637,0-1.624,0-1.415-1.628
	c0.373-2.908,1.22-5.644,3.056-7.976c1.856-2.358,4.326-3.63,7.316-3.952c2.368-0.255,4.688-0.111,6.921,0.731
	c3.521,1.328,5.591,3.99,6.703,7.488c0.453,1.424,0.557,2.914,0.785,4.379C103.31,52.42,102.911,52.612,102.209,52.609z"/>
</svg>
